<svg width="36" height="36" viewBox="0 0 36 36" fill="none" xmlns="http://www.w3.org/2000/svg">
<path d="M33.0274 7.02904L35.15 4.90891L30.9097 0.66388L28.7872 2.784L33.0274 7.02904ZM0.0633508 32.7174C0.0624157 34.3742 1.4048 35.7181 3.06166 35.7191L30.0617 35.7343C31.7185 35.7352 33.0624 34.3929 33.0633 32.736C33.0643 31.0791 31.7219 29.7352 30.065 29.7343L6.06504 29.7208L6.07859 5.72077C6.07952 4.06392 4.73714 2.72001 3.08028 2.71908C1.42343 2.71814 0.0795244 4.06053 0.0785896 5.71738L0.0633508 32.7174ZM28.7872 2.784L0.943229 30.5966L5.18347 34.8416L33.0274 7.02904L28.7872 2.784Z" fill="#181818"/>
</svg>
