<svg width="24" height="24" viewBox="0 0 24 24" fill="none" xmlns="http://www.w3.org/2000/svg">
<g clip-path="url(#clip0_283_92)">
<path d="M23.7099 7.79003L19.7999 4.00003C18.7757 3.02623 17.4132 2.48841 15.9999 2.50003C15.8899 2.50003 15.5699 2.43003 15.4999 2.80003C15.3856 3.65966 14.9721 4.45156 14.3321 5.03673C13.692 5.62189 12.8664 5.96295 11.9999 6.00003C11.1353 5.96066 10.312 5.61858 9.67399 5.03362C9.03602 4.44866 8.62398 3.65804 8.50994 2.80003C8.43994 2.43003 8.10994 2.53003 8.00994 2.50003C6.59325 2.4858 5.2267 3.02381 4.19994 4.00003L0.289939 7.79003C0.196211 7.88299 0.121816 7.99359 0.0710475 8.11545C0.0202789 8.23731 -0.00585938 8.36801 -0.00585938 8.50003C-0.00585938 8.63204 0.0202789 8.76274 0.0710475 8.8846C0.121816 9.00646 0.196211 9.11706 0.289939 9.21003L2.61994 11.53C2.79676 11.717 3.03887 11.8287 3.2959 11.8417C3.55294 11.8547 3.8051 11.7682 3.99994 11.6L5.23994 10.6C5.31407 10.5415 5.40353 10.5056 5.49756 10.4968C5.59159 10.4879 5.68617 10.5064 5.76994 10.55C5.84479 10.5978 5.90555 10.6647 5.94598 10.7438C5.9864 10.8229 6.00503 10.9113 5.99994 11V20.5C5.99994 20.7652 6.1053 21.0196 6.29283 21.2071C6.48037 21.3947 6.73472 21.5 6.99994 21.5H16.9999C17.2652 21.5 17.5195 21.3947 17.707 21.2071C17.8946 21.0196 17.9999 20.7652 17.9999 20.5V11C17.9998 10.9063 18.0259 10.8144 18.0754 10.7349C18.1249 10.6553 18.1958 10.5913 18.2799 10.55C18.3637 10.5064 18.4583 10.4879 18.5523 10.4968C18.6463 10.5056 18.7358 10.5415 18.8099 10.6L20.0399 11.55C20.231 11.7079 20.4739 11.7891 20.7215 11.778C20.9691 11.7669 21.2037 11.6643 21.3799 11.49L23.7099 9.17003C23.8872 8.98405 23.9861 8.73697 23.9861 8.48003C23.9861 8.22308 23.8872 7.976 23.7099 7.79003Z" fill="black"/>
</g>
<defs>
<clipPath id="clip0_283_92">
<rect width="24" height="24" fill="white"/>
</clipPath>
</defs>
</svg>
