<svg width="52" height="52" viewBox="0 0 52 52" fill="none" xmlns="http://www.w3.org/2000/svg">
<rect width="52" height="52" rx="16" fill="#AAF206"/>
<path d="M10 10H42V42H10V10Z" fill="white" fill-opacity="0.01"/>
<path d="M26 39.3333C26 39.3333 36 31.3333 36 22.6667C36 17.1438 31.5229 12.6667 26 12.6667C20.4771 12.6667 16 17.1438 16 22.6667C16 31.3333 26 39.3333 26 39.3333Z" stroke="black" stroke-width="2" stroke-linejoin="round"/>
<path d="M26 26.6667C28.2091 26.6667 30 24.8758 30 22.6667C30 20.4575 28.2091 18.6667 26 18.6667C23.7909 18.6667 22 20.4575 22 22.6667C22 24.8758 23.7909 26.6667 26 26.6667Z" stroke="black" stroke-width="2" stroke-linejoin="round"/>
</svg>
