<svg width="35" height="35" viewBox="0 0 35 35" fill="none" xmlns="http://www.w3.org/2000/svg">
<path fill-rule="evenodd" clip-rule="evenodd" d="M0 0H35V35H0V0Z" fill="white" fill-opacity="0.01"/>
<path d="M17.5001 32.0833C25.5542 32.0833 32.0834 25.5542 32.0834 17.5C32.0834 9.44585 25.5542 2.91667 17.5001 2.91667C9.44593 2.91667 2.91675 9.44585 2.91675 17.5C2.91675 25.5542 9.44593 32.0833 17.5001 32.0833Z" stroke="black" stroke-width="2" stroke-linecap="round" stroke-linejoin="round"/>
<path d="M21.943 4.73958L17.551 7.918V11.0964L23.1978 15.5462L26.3349 14.2748L28.2172 9.18937" stroke="black" stroke-width="2" stroke-linecap="round" stroke-linejoin="round"/>
<path d="M13.1592 4.73958L17.5512 7.918V11.0964L11.9044 15.5462L8.76728 14.2748L6.88501 9.18937" stroke="black" stroke-width="2" stroke-linecap="round" stroke-linejoin="round"/>
<path d="M4.375 16.1819L8.76696 14.2748L11.9041 15.5462L13.7863 22.5387L11.9041 25.0815H6.25727" stroke="black" stroke-width="2" stroke-linecap="round" stroke-linejoin="round"/>
<path d="M11.9043 29.5312V25.0815L13.7866 22.5387H21.3156L23.1979 25.0815V29.5312" stroke="black" stroke-width="2" stroke-linecap="round" stroke-linejoin="round"/>
<path d="M28.8447 25.0815H23.1979L21.3157 22.5387L23.1979 15.5462L26.3351 14.2748L31.3544 16.8176" stroke="black" stroke-width="2" stroke-linecap="round" stroke-linejoin="round"/>
</svg>
