<svg width="52" height="52" viewBox="0 0 52 52" fill="none" xmlns="http://www.w3.org/2000/svg">
<rect width="52" height="52" rx="16" fill="#AAF206"/>
<path d="M10.1875 25.5C10.1875 29.5611 11.8008 33.4559 14.6724 36.3276C17.5441 39.1992 21.4389 40.8125 25.5 40.8125C29.5611 40.8125 33.4559 39.1992 36.3276 36.3276C39.1992 33.4559 40.8125 29.5611 40.8125 25.5C40.8125 21.4389 39.1992 17.5441 36.3276 14.6724C33.4559 11.8008 29.5611 10.1875 25.5 10.1875C21.4389 10.1875 17.5441 11.8008 14.6724 14.6724C11.8008 17.5441 10.1875 21.4389 10.1875 25.5Z" stroke="black" stroke-width="2" stroke-linecap="round" stroke-linejoin="round"/>
<path d="M25.5 25.5V20.0312" stroke="black" stroke-width="2" stroke-linecap="round" stroke-linejoin="round"/>
<path d="M25.5 25.5L32.3352 32.3367" stroke="black" stroke-width="2" stroke-linecap="round" stroke-linejoin="round"/>
</svg>
