<svg width="50" height="50" viewBox="0 0 50 50" fill="none" xmlns="http://www.w3.org/2000/svg">
<circle cx="25" cy="25" r="25" fill="#AAF206"/>
<path d="M2 5H42V45H2V5Z" fill="white" fill-opacity="0.01"/>
<path d="M31.1667 18.3333C33.4678 18.3333 35.3333 16.4678 35.3333 14.1667C35.3333 11.8655 33.4678 10 31.1667 10C28.8655 10 27 11.8655 27 14.1667C27 16.4678 28.8655 18.3333 31.1667 18.3333Z" stroke="black" stroke-width="2" stroke-linejoin="round"/>
<path d="M12.8334 29.1666C15.1346 29.1666 17.0001 27.3011 17.0001 25C17.0001 22.6988 15.1346 20.8333 12.8334 20.8333C10.5322 20.8333 8.66675 22.6988 8.66675 25C8.66675 27.3011 10.5322 29.1666 12.8334 29.1666Z" stroke="black" stroke-width="2" stroke-linejoin="round"/>
<path d="M26.9999 16.3121L16.449 22.7045" stroke="black" stroke-width="2" stroke-linecap="round" stroke-linejoin="round"/>
<path d="M16.449 27.1366L27.566 33.7058" stroke="black" stroke-width="2" stroke-linecap="round" stroke-linejoin="round"/>
<path d="M31.1667 31.6667C33.4678 31.6667 35.3333 33.5322 35.3333 35.8334C35.3333 38.1345 33.4678 40 31.1667 40C28.8655 40 27 38.1345 27 35.8334C27 33.5322 28.8655 31.6667 31.1667 31.6667Z" stroke="black" stroke-width="2" stroke-linejoin="round"/>
</svg>
